<svg id="visual" viewBox="0 0 4000 2000" width="4000" height="2000" xmlns="http://www.w3.org/2000/svg" xmlns:xlink="http://www.w3.org/1999/xlink" version="1.1"><rect x="0" y="0" width="4000" height="2000" fill="#001220"></rect><defs><linearGradient id="grad1_0" x1="50%" y1="0%" x2="100%" y2="100%"><stop offset="10%" stop-color="#b34095" stop-opacity="1"></stop><stop offset="90%" stop-color="#b34095" stop-opacity="1"></stop></linearGradient></defs><defs><linearGradient id="grad1_1" x1="50%" y1="0%" x2="100%" y2="100%"><stop offset="10%" stop-color="#b34095" stop-opacity="1"></stop><stop offset="90%" stop-color="#603c80" stop-opacity="1"></stop></linearGradient></defs><defs><linearGradient id="grad1_2" x1="50%" y1="0%" x2="100%" y2="100%"><stop offset="10%" stop-color="#1e2b54" stop-opacity="1"></stop><stop offset="90%" stop-color="#603c80" stop-opacity="1"></stop></linearGradient></defs><defs><linearGradient id="grad1_3" x1="50%" y1="0%" x2="100%" y2="100%"><stop offset="10%" stop-color="#1e2b54" stop-opacity="1"></stop><stop offset="90%" stop-color="#001220" stop-opacity="1"></stop></linearGradient></defs><defs><linearGradient id="grad2_0" x1="0%" y1="0%" x2="50%" y2="100%"><stop offset="10%" stop-color="#b34095" stop-opacity="1"></stop><stop offset="90%" stop-color="#b34095" stop-opacity="1"></stop></linearGradient></defs><defs><linearGradient id="grad2_1" x1="0%" y1="0%" x2="50%" y2="100%"><stop offset="10%" stop-color="#603c80" stop-opacity="1"></stop><stop offset="90%" stop-color="#b34095" stop-opacity="1"></stop></linearGradient></defs><defs><linearGradient id="grad2_2" x1="0%" y1="0%" x2="50%" y2="100%"><stop offset="10%" stop-color="#603c80" stop-opacity="1"></stop><stop offset="90%" stop-color="#1e2b54" stop-opacity="1"></stop></linearGradient></defs><defs><linearGradient id="grad2_3" x1="0%" y1="0%" x2="50%" y2="100%"><stop offset="10%" stop-color="#001220" stop-opacity="1"></stop><stop offset="90%" stop-color="#1e2b54" stop-opacity="1"></stop></linearGradient></defs><g transform="translate(4000, 0)"><path d="M0 1800C-248.5 1755.4 -497 1710.8 -649 1566.9C-801.1 1423 -856.7 1179.7 -1035.2 1035.2C-1213.7 890.7 -1515 844.9 -1663 688.8C-1810.9 532.8 -1805.5 266.4 -1800 0L0 0Z" fill="#08203a"></path><path d="M0 1350C-186.4 1316.6 -372.7 1283.1 -486.8 1175.2C-600.8 1067.2 -642.5 884.8 -776.4 776.4C-910.3 668 -1136.3 633.7 -1247.2 516.6C-1358.2 399.6 -1354.1 199.8 -1350 0L0 0Z" fill="#3c356c"></path><path d="M0 900C-124.2 877.7 -248.5 855.4 -324.5 783.4C-400.5 711.5 -428.4 589.9 -517.6 517.6C-606.8 445.3 -757.5 422.5 -831.5 344.4C-905.5 266.4 -902.7 133.2 -900 0L0 0Z" fill="#893f8e"></path><path d="M0 450C-62.1 438.9 -124.2 427.7 -162.3 391.7C-200.3 355.7 -214.2 294.9 -258.8 258.8C-303.4 222.7 -378.8 211.2 -415.7 172.2C-452.7 133.2 -451.4 66.6 -450 0L0 0Z" fill="#b34095"></path></g><g transform="translate(0, 2000)"><path d="M0 -1800C171.5 -1613.7 342.9 -1427.5 563.7 -1360.9C784.5 -1294.3 1054.6 -1347.4 1254.4 -1254.4C1454.2 -1161.4 1583.8 -922.3 1663 -688.8C1742.2 -455.4 1771.1 -227.7 1800 0L0 0Z" fill="#08203a"></path><path d="M0 -1350C128.6 -1210.3 257.2 -1070.6 422.8 -1020.7C588.4 -970.7 790.9 -1010.6 940.8 -940.8C1090.7 -871 1187.8 -691.7 1247.2 -516.6C1306.7 -341.6 1328.3 -170.8 1350 0L0 0Z" fill="#3c356c"></path><path d="M0 -900C85.7 -806.9 171.5 -713.7 281.8 -680.4C392.2 -647.1 527.3 -673.7 627.2 -627.2C727.1 -580.7 791.9 -461.1 831.5 -344.4C871.1 -227.7 885.6 -113.9 900 0L0 0Z" fill="#893f8e"></path><path d="M0 -450C42.9 -403.4 85.7 -356.9 140.9 -340.2C196.1 -323.6 263.6 -336.9 313.6 -313.6C363.6 -290.3 395.9 -230.6 415.7 -172.2C435.6 -113.9 442.8 -56.9 450 0L0 0Z" fill="#b34095"></path></g></svg>